<svg class="container" width="173" height="244" viewBox="0 0 173 244" fill="none" xmlns="http://www.w3.org/2000/svg">
@if (visibility[5]){
    <path d="M0 158L32.5 139V90.5L75 66V28.5L0 72V158Z" fill="#D9D9D9" fill-opacity="0.75"/>
    <path d="M0 147.5L25.5 133V87L66 63V33.5L0 72V147.5Z" fill="#970000" [ngStyle]="{'fill': primaryColors[5]}"/>
    <path d="M0 147.5L13.5 140V79.5L65.5 49V34L0 71.5V147.5Z" fill="#490101" [ngStyle]="{'fill': secondaryColors[5]}"/>
}
@if (visibility[3]){
<path d="M12 178.952L44.7045 160.306L86.7067 184.556L129.174 160L161.65 178.75L86.4782 221.952L12 178.952Z" fill="#D9D9D9" fill-opacity="0.75"/>
<path d="M21.0933 184.202L46.4006 169.368L86.2378 192.368L127.272 169.294L152.82 184.044L86.4782 221.952L21.0933 184.202Z" fill="#970000" [ngStyle]="{'fill': primaryColors[3]}"/>
<path d="M21.0933 184.202L34.3385 176.261L86.733 206.511L139.147 176.727L152.137 184.227L86.9112 222.202L21.0933 184.202Z" fill="#490101" [ngStyle]="{'fill': secondaryColors[3]}"/>
}
@if (visibility[1]){
<path d="M173 158.5L140.5 139.5V91L98 66.5V29L173 72.5V158.5Z" fill="#D9D9D9" fill-opacity="0.75"/>
<path d="M173 148L147.5 133.5V87.5L107 63.5V34L173 72.5V148Z" fill="#970000" [ngStyle]="{'fill': primaryColors[1]}"/>
<path d="M173 148L159.5 140.5V80L107.5 49.5V34.5L173 72V148Z" fill="#490101" [ngStyle]="{'fill': secondaryColors[1]}"/>
}
@if (visibility[4]){
    <path d="M0 86.2019L32.5 105.202V153.702L75 178.202V215.702L0 172.202V86.2019Z" fill="#D9D9D9" fill-opacity="0.75"/>
    <path d="M0 96.7019L25.5 111.202V157.202L66 181.202V210.702L0 172.202V96.7019Z" fill="#970000" [ngStyle]="{'fill': primaryColors[4]}"/>
    <path d="M0 96.7019L13.5 104.202V164.702L65.5 195.202V210.202L0 172.702V96.7019Z" fill="#490101" [ngStyle]="{'fill': secondaryColors[4]}"/>
}
@if (visibility[0]){
<path d="M12 65.25L44.7045 83.8958L86.7067 59.6458L129.174 84.2019L161.65 65.4519L86.4782 22.25L12 65.25Z" fill="#D9D9D9" fill-opacity="0.75"/>
<path d="M21.0933 60L46.4006 74.8336L86.2378 51.8336L127.272 74.9077L152.82 60.1577L86.4782 22.25L21.0933 60Z" fill="#970000" [ngStyle]="{'fill': primaryColors[0]}"/>
<path d="M21.0933 60L34.3385 67.9413L86.733 37.6913L139.147 67.4747L152.137 59.9747L86.9112 22L21.0933 60Z" fill="#490101" [ngStyle]="{'fill': secondaryColors[0]}"/>
}
@if (visibility[2]){
    <path d="M173 85.7019L140.5 104.702V153.202L98 177.702V215.202L173 171.702V85.7019Z" fill="#D9D9D9" fill-opacity="0.75"/>
    <path d="M173 96.2019L147.5 110.702V156.702L107 180.702V210.202L173 171.702V96.2019Z" fill="#970000" [ngStyle]="{'fill': primaryColors[2]}"/>
    <path d="M173 96.2019L159.5 103.702V164.202L107.5 194.702V209.702L173 172.202V96.2019Z" fill="#490101" [ngStyle]="{'fill': secondaryColors[2]}"/>
}
</svg>
