<svg class="container" width="174" height="187" viewBox="0 0 174 187" fill="none" xmlns="http://www.w3.org/2000/svg">
@if (visibility[6]){
    <path d="M0 130L32.5 111V76L0 58V130Z" fill="#D9D9D9" fill-opacity="0.5"/>
    <path d="M0 130L32.5 111V76L0 58V130Z" fill="#D9D9D9" fill-opacity="0.5"/>
    <path d="M0 119.5L25.5 105.167V82.7667L0 69V119.5Z" fill="#970000" [ngStyle]="{'fill': primaryColors[6]}"/>
    <path d="M0 119.5L13 112V76L0 69V119.5Z" fill="#490101" [ngStyle]="{'fill': secondaryColors[6]}"/>
}
@if (visibility[3]) {
    <path d="M173.5 58L141 77V112L173.5 130V58Z" fill="#D9D9D9" fill-opacity="0.5"/>
    <path d="M173.5 58L141 77V112L173.5 130V58Z" fill="#D9D9D9" fill-opacity="0.5"/>
    <path d="M173.5 68.5L148 82.8333V105.233L173.5 119V68.5Z" fill="#970000" [ngStyle]="{'fill': primaryColors[3]}"/>
    <path d="M173.5 68.5L160.5 76V112L173.5 119V68.5Z" fill="#490101"  [ngStyle]="{'fill': secondaryColors[3]}"/>
}
@if (visibility[2]){
    <path d="M98.7084 0.559478L99.1108 38.2037L129.513 55.5441L161.251 36.2312L98.7084 0.559478Z" fill="#D9D9D9" fill-opacity="0.5"/>
    <path d="M98.7084 0.559478L99.1108 38.2037L129.513 55.5441L161.251 36.2312L98.7084 0.559478Z" fill="#D9D9D9" fill-opacity="0.5"/>
    <path d="M107.829 5.7616L107.646 35.0133L127.104 46.1112L151.696 30.7814L107.829 5.7616Z" fill="#970000" [ngStyle]="{'fill': primaryColors[2]}"/>
    <path d="M107.829 5.7616L107.903 20.7697L139.174 38.6056L151.696 30.7814L107.829 5.7616Z" fill="#490101"  [ngStyle]="{'fill': secondaryColors[2]}"/>
}
@if (visibility[5]){
    <path d="M75.2916 186.941L74.8892 149.296L44.4868 131.956L12.7494 151.269L75.2916 186.941Z" fill="#D9D9D9" fill-opacity="0.5"/>
    <path d="M75.2916 186.941L74.8892 149.296L44.4868 131.956L12.7494 151.269L75.2916 186.941Z" fill="#D9D9D9" fill-opacity="0.5"/>
    <path d="M66.1708 181.738L66.3541 152.487L46.8965 141.389L22.3044 156.719L66.1708 181.738Z" fill="#970000" [ngStyle]="{'fill': primaryColors[5]}"/>
    <path d="M66.1708 181.738L66.0968 166.73L34.8257 148.894L22.3044 156.719L66.1708 181.738Z" fill="#490101"  [ngStyle]="{'fill': secondaryColors[5]}"/>
}
@if (visibility[1]){
    <path d="M12.1864 36.9654L44.9762 55.4608L75.2064 37.8217L74.3742 0.679321L12.1864 36.9654Z" fill="#D9D9D9" fill-opacity="0.5"/>
    <path d="M12.1864 36.9654L44.9762 55.4608L75.2064 37.8217L74.3742 0.679321L12.1864 36.9654Z" fill="#D9D9D9" fill-opacity="0.5"/>
    <path d="M21.2555 31.6737L46.4867 46.4749L65.8341 35.1859L64.8733 6.22302L21.2555 31.6737Z" fill="#970000" [ngStyle]="{'fill': primaryColors[1]}"/>
    <path d="M21.2555 31.6737L34.285 39.1222L65.3789 20.9792L64.8733 6.22302L21.2555 31.6737Z" fill="#490101"  [ngStyle]="{'fill': secondaryColors[1]}"/>
}
@if (visibility[4]){
    <path d="M161.814 150.535L129.024 132.039L98.7936 149.678L99.6258 186.821L161.814 150.535Z" fill="#D9D9D9" fill-opacity="0.5"/>
    <path d="M161.814 150.535L129.024 132.039L98.7936 149.678L99.6258 186.821L161.814 150.535Z" fill="#D9D9D9" fill-opacity="0.5"/>
    <path d="M152.745 155.826L127.513 141.025L108.166 152.314L109.127 181.277L152.745 155.826Z" fill="#970000" [ngStyle]="{'fill': primaryColors[4]}"/>
    <path d="M152.745 155.826L139.715 148.378L108.621 166.521L109.127 181.277L152.745 155.826Z" fill="#490101"  [ngStyle]="{'fill': secondaryColors[4]}"/>
}
</svg>
