<svg class="container" width="249" height="245" viewBox="0 0 249 245" fill="none" xmlns="http://www.w3.org/2000/svg">
@if (visibility[4]){
    <path d="M113 215.5V178L71 153.5V91L113 66V29L38 71.5V172.5L113 215.5Z" fill="#D9D9D9" fill-opacity="0.7"/>
    <path d="M104 181.5V210.5L38 172.5V71.5L104 34V63L63.5 87V157L104 181.5Z" fill="#970000" [ngStyle]="{'fill': primaryColors[4]}"/>
    <path d="M104 195.5V210.5L38 172.5V71.5L104 34V48.5L51.5 79.5V165L104 195.5Z" fill="#490101" [ngStyle]="{'fill': secondaryColors[4]}"/>
}
@if (visibility[1]){
    <path d="M136 215.5V178L178 153.5V91L136 66V29L211 71.5V172.5L136 215.5Z" fill="#D9D9D9" fill-opacity="0.7"/>
    <path d="M145 181.5V210.5L211 172.5V71.5L145 34V63L185.5 87V157L145 181.5Z" fill="#970000" [ngStyle]="{'fill': primaryColors[1]}"/>
    <path d="M145 195.5V210.5L211 172.5V71.5L145 34V48.5L197.5 79.5V165L145 195.5Z" fill="#490101" [ngStyle]="{'fill': secondaryColors[1]}"/>
}
@if (visibility[5]){
    <path d="M38.0478 159.044L70.4958 140.246L70.6411 91.6228L124.721 60.2922L167.407 84.1018L199.423 65.5541L125.052 21.9629L37.6582 72.593L38.0478 159.044Z" fill="#D9D9D9" fill-opacity="0.7"/>
    <path d="M62.9557 134.213L37.8626 148.75L37.6582 72.593L125.052 21.9629L190.585 60.273L165.491 74.8104L124.423 51.7975L63.8529 86.8877L62.9557 134.213Z" fill="#970000" [ngStyle]="{'fill': primaryColors[5]}"/>
    <path d="M50.8418 141.231L37.8626 148.75L37.6582 72.593L125.052 21.9629L190.585 60.273L178.038 67.5417L124.897 37.6545L50.9152 80.5146L50.8418 141.231Z" fill="#490101" [ngStyle]="{'fill': secondaryColors[5]}"/>
}
@if (visibility[2]){
    <path d="M49.5774 178.946L82.0254 160.148L124.279 184.208L178.359 152.877L178.937 104.003L210.952 85.4556L211.774 171.656L124.381 222.287L49.5774 178.946Z" fill="#D9D9D9" fill-opacity="0.7"/>
    <path d="M83.5086 169.69L58.4154 184.227L124.381 222.287L211.774 171.656L211.137 95.7496L186.044 110.287L185.58 157.362L125.01 192.452L83.5086 169.69Z" fill="#970000" [ngStyle]="{'fill': primaryColors[2]}"/>
    <path d="M71.3946 176.708L58.4154 184.227L124.381 222.287L211.774 171.656L211.137 95.7496L198.591 103.018L198.085 163.985L124.103 206.846L71.3946 176.708Z" fill="#490101" [ngStyle]="{'fill': secondaryColors[2]}"/>
}
@if (visibility[0]){
    <path d="M50.1215 64.8422L82.3888 83.9491L124.87 60.2929L178.649 92.1378L178.76 141.015L210.597 159.867L212.242 73.6782L125.335 22.2169L50.1215 64.8422Z" fill="#D9D9D9" fill-opacity="0.7"/>
    <path d="M83.9628 74.4216L59.0094 59.6456L125.335 22.2169L212.242 73.6781L210.881 149.575L185.927 134.799L185.912 87.7224L125.68 52.0562L83.9628 74.4216Z" fill="#970000" [ngStyle]="{'fill': primaryColors[0]}"/>
    <path d="M71.9164 67.2884L59.0094 59.6456L125.335 22.2169L212.242 73.6781L210.881 149.575L198.404 142.187L198.479 81.2182L124.91 37.6545L71.9164 67.2884Z" fill="#490101" [ngStyle]="{'fill': secondaryColors[0]}"/>
}
@if (visibility[3]){
    <path d="M38.4026 84.6328L70.6699 103.74L70.3514 152.362L124.13 184.207L167.041 160.806L198.878 179.658L124.095 222.538L37.1886 171.077L38.4026 84.6328Z" fill="#D9D9D9" fill-opacity="0.7"/>
    <path d="M63.0726 109.701L38.1192 94.9245L37.1886 171.077L124.095 222.538L189.991 184.854L165.037 170.078L123.751 192.699L63.5184 157.032L63.0726 109.701Z" fill="#970000" [ngStyle]="{'fill': primaryColors[3]}"/>
    <path d="M51.0262 102.567L38.1192 94.9245L37.1886 171.077L124.095 222.538L189.991 184.854L177.514 177.466L124.09 206.845L50.5206 163.282L51.0262 102.567Z" fill="#490101" [ngStyle]="{'fill': secondaryColors[3]}"/>
}
</svg>